%TF.GenerationSoftware,KiCad,Pcbnew,(6.0.10)*%
%TF.CreationDate,2023-02-17T12:11:39-08:00*%
%TF.ProjectId,exercise2,65786572-6369-4736-9532-2e6b69636164,rev?*%
%TF.SameCoordinates,Original*%
%TF.FileFunction,Copper,L2,Bot*%
%TF.FilePolarity,Positive*%
%FSLAX46Y46*%
G04 Gerber Fmt 4.6, Leading zero omitted, Abs format (unit mm)*
G04 Created by KiCad (PCBNEW (6.0.10)) date 2023-02-17 12:11:39*
%MOMM*%
%LPD*%
G01*
G04 APERTURE LIST*
%TA.AperFunction,ComponentPad*%
%ADD10R,3.000000X3.000000*%
%TD*%
%TA.AperFunction,ComponentPad*%
%ADD11C,3.000000*%
%TD*%
%TA.AperFunction,ViaPad*%
%ADD12C,0.800000*%
%TD*%
%TA.AperFunction,Conductor*%
%ADD13C,0.250000*%
%TD*%
%TA.AperFunction,Conductor*%
%ADD14C,0.508000*%
%TD*%
G04 APERTURE END LIST*
D10*
%TO.P,J1,1,Pin_1*%
%TO.N,/GND*%
X132080000Y-93980000D03*
D11*
%TO.P,J1,2,Pin_2*%
%TO.N,/9V*%
X137160000Y-93980000D03*
%TD*%
D12*
%TO.N,/pin_2*%
X137160000Y-106680000D03*
X149860000Y-99060000D03*
%TO.N,/GND*%
X152400000Y-93980000D03*
X147320000Y-93980000D03*
%TO.N,Net-(C2-Pad1)*%
X144780000Y-101600000D03*
X157480000Y-106680000D03*
%TO.N,/9V*%
X157480000Y-99060000D03*
%TO.N,Net-(D2-Pad2)*%
X147320000Y-96520000D03*
X154940000Y-96520000D03*
%TO.N,/pin_7*%
X157480000Y-101600000D03*
X134620000Y-104140000D03*
X144780000Y-104140000D03*
%TD*%
D13*
%TO.N,/pin_2*%
X149860000Y-99060000D02*
X144780000Y-99060000D01*
X144780000Y-99060000D02*
X137160000Y-106680000D01*
D14*
%TO.N,/GND*%
X147320000Y-91440000D02*
X144780000Y-91440000D01*
X152400000Y-93980000D02*
X147320000Y-93980000D01*
X147320000Y-93980000D02*
X147320000Y-91440000D01*
X144780000Y-91440000D02*
X139700000Y-96520000D01*
X134620000Y-96520000D02*
X132080000Y-93980000D01*
X139700000Y-96520000D02*
X134620000Y-96520000D01*
D13*
%TO.N,Net-(C2-Pad1)*%
X152400000Y-101600000D02*
X144780000Y-101600000D01*
X157480000Y-106680000D02*
X152400000Y-101600000D01*
D14*
%TO.N,/9V*%
X157480000Y-88900000D02*
X137160000Y-88900000D01*
X157480000Y-99060000D02*
X157480000Y-88900000D01*
X137160000Y-88900000D02*
X137160000Y-93980000D01*
D13*
%TO.N,Net-(D2-Pad2)*%
X154940000Y-96520000D02*
X147320000Y-96520000D01*
%TO.N,/pin_7*%
X146355000Y-109095000D02*
X134620000Y-109095000D01*
X160020000Y-104140000D02*
X160020000Y-105165305D01*
X148045000Y-107405000D02*
X146355000Y-109095000D01*
X157480000Y-101600000D02*
X160020000Y-104140000D01*
X148045000Y-107405000D02*
X144780000Y-104140000D01*
X134620000Y-109095000D02*
X134620000Y-104140000D01*
X157780305Y-107405000D02*
X148045000Y-107405000D01*
X160020000Y-105165305D02*
X157780305Y-107405000D01*
%TD*%
M02*
